<svg width="118" height="97" viewBox="0 0 118 97" fill="none" xmlns="http://www.w3.org/2000/svg">
<path d="M52.7334 21.2715C55.0275 15.6607 62.9724 15.6607 65.2666 21.2715L69.3545 31.2676C69.52 31.6724 69.7399 32.0536 70.0078 32.3994L76.6211 40.9375C80.3326 45.7295 76.3603 52.6102 70.3545 51.792L59.6533 50.333C59.2199 50.2739 58.78 50.2739 58.3467 50.333L47.6455 51.792C41.6397 52.6102 37.6674 45.7295 41.3789 40.9375L47.9922 32.3994C48.26 32.0536 48.48 31.6724 48.6455 31.2676L52.7334 21.2715Z" stroke="url(#paint0_linear_307_31947)" stroke-width="1.93443"/>
<path d="M66.3977 21.7401C71.9873 19.3949 77.6052 25.0128 75.26 30.6024L71.0822 40.5613C70.913 40.9646 70.799 41.3896 70.7439 41.8236L69.3828 52.5372C68.6188 58.5501 60.9446 60.6066 57.2764 55.7813L50.7412 47.1828C50.4765 46.8346 50.1655 46.5235 49.8173 46.2589L41.2187 39.7236C36.3934 36.0555 38.4499 28.3813 44.4629 27.6172L55.1765 26.2562C55.6104 26.201 56.0355 26.087 56.4388 25.9178L66.3977 21.7401Z" stroke="url(#paint1_linear_307_31947)" stroke-width="1.93443"/>
<path d="M75.7285 31.7334C81.3393 34.0275 81.3393 41.9724 75.7285 44.2666L65.7324 48.3545C65.3276 48.52 64.9464 48.74 64.6006 49.0078L56.0625 55.6211C51.2705 59.3326 44.3898 55.3603 45.208 49.3545L46.667 38.6533C46.7261 38.2199 46.7261 37.7801 46.667 37.3467L45.208 26.6455C44.3898 20.6397 51.2705 16.6674 56.0625 20.3789L64.6006 26.9922C64.9464 27.26 65.3276 27.48 65.7324 27.6455L75.7285 31.7334Z" stroke="url(#paint2_linear_307_31947)" stroke-width="1.93443"/>
<defs>
<linearGradient id="paint0_linear_307_31947" x1="29.5" y1="38" x2="88.5" y2="38" gradientUnits="userSpaceOnUse">
<stop stop-color="#9333EA"/>
<stop offset="0.25" stop-color="#7B4DEE"/>
<stop offset="0.5" stop-color="#3B82F6"/>
</linearGradient>
<linearGradient id="paint1_linear_307_31947" x1="38.1403" y1="17.1404" x2="79.8596" y2="58.8597" gradientUnits="userSpaceOnUse">
<stop stop-color="#9333EA"/>
<stop offset="0.25" stop-color="#7B4DEE"/>
<stop offset="0.5" stop-color="#3B82F6"/>
</linearGradient>
<linearGradient id="paint2_linear_307_31947" x1="59" y1="8.49999" x2="59" y2="67.5" gradientUnits="userSpaceOnUse">
<stop stop-color="#9333EA"/>
<stop offset="0.25" stop-color="#7B4DEE"/>
<stop offset="0.5" stop-color="#3B82F6"/>
</linearGradient>
</defs>
</svg>
